<?xml version="1.0" standalone="no"?>
<!DOCTYPE svg PUBLIC "-//W3C//DTD SVG 20010904//EN"
 "http://www.w3.org/TR/2001/REC-SVG-20010904/DTD/svg10.dtd">
<svg version="1.0" xmlns="http://www.w3.org/2000/svg"
 width="500.000000pt" height="500.000000pt" viewBox="0 0 500.000000 500.000000"
 preserveAspectRatio="xMidYMid meet">

<g transform="translate(0.000000,500.000000) scale(0.100000,-0.100000)"
fill="#ecdfcc" stroke="none">
<path d="M2196 4421 c-8 -12 4 -70 15 -77 5 -3 9 -9 9 -14 0 -4 -26 -2 -57 7
-32 8 -76 18 -98 22 -23 4 -46 10 -53 15 -17 10 -52 -11 -52 -32 0 -9 7 -26
15 -36 21 -28 19 -36 -12 -36 -16 0 -84 -16 -153 -35 -141 -40 -245 -53 -287
-37 -67 26 -91 25 -109 -3 -14 -22 -15 -31 -6 -46 7 -10 12 -25 12 -32 0 -7
14 -29 30 -49 l30 -36 -57 -33 c-130 -73 -223 -150 -223 -185 0 -31 8 -34 89
-35 l71 -1 -19 -27 c-11 -15 -27 -34 -36 -41 -8 -7 -23 -29 -32 -49 -10 -20
-23 -42 -30 -49 -15 -16 -27 -76 -19 -98 9 -23 42 -9 109 48 55 48 58 47 37
-7 -35 -92 -42 -188 -14 -199 9 -4 27 0 40 9 22 14 23 14 30 -31 3 -25 4 -70
0 -100 -4 -32 -2 -63 4 -74 11 -21 35 -26 45 -10 14 23 45 168 65 310 19 126
22 131 99 170 l69 36 -11 -26 c-6 -14 -19 -40 -29 -58 -10 -18 -21 -50 -24
-72 -6 -36 -4 -40 19 -45 49 -13 230 63 360 150 37 25 70 45 73 45 3 0 -13
-34 -35 -76 -46 -85 -50 -110 -22 -119 44 -14 236 93 330 185 l59 57 -13 -36
c-7 -20 -23 -58 -34 -85 -12 -27 -20 -55 -17 -63 19 -48 235 50 352 159 36 33
39 29 43 -47 3 -62 5 -65 40 -65 21 0 47 17 99 65 l70 65 12 -55 c16 -77 45
-140 83 -178 41 -41 54 -75 63 -161 7 -68 44 -243 59 -280 6 -14 5 -17 -3 -12
-7 4 -61 16 -122 26 -61 10 -115 22 -122 26 -55 34 -426 56 -576 34 -112 -16
-160 -35 -197 -76 -29 -32 -32 -33 -76 -24 -25 5 -70 8 -99 6 -51 -2 -57 0
-90 35 -56 59 -133 74 -385 74 -180 0 -272 -14 -300 -45 -9 -10 -16 -38 -16
-70 -2 -49 1 -54 38 -89 36 -32 42 -44 53 -106 23 -130 43 -176 105 -242 25
-27 36 -49 40 -82 62 -499 83 -601 156 -747 48 -98 127 -184 195 -214 27 -11
58 -25 69 -30 19 -8 176 -46 220 -52 15 -3 21 -13 26 -46 7 -56 -1 -62 -206
-162 -424 -205 -466 -228 -537 -296 -51 -49 -63 -64 -105 -125 -32 -47 -107
-192 -119 -232 -3 -12 -12 -35 -19 -52 -8 -16 -29 -75 -48 -130 -87 -249 -92
-277 -50 -283 29 -4 45 30 114 243 55 172 69 206 131 330 88 176 156 235 413
360 308 150 350 170 359 170 5 0 15 -18 23 -40 37 -107 165 -165 370 -165 100
0 144 6 271 36 231 55 480 206 651 394 l72 79 57 -38 c86 -57 179 -111 190
-111 6 0 17 -6 24 -13 7 -6 78 -45 158 -86 286 -147 359 -193 447 -280 41 -41
91 -104 113 -140 45 -78 108 -225 126 -296 7 -27 24 -90 38 -140 23 -80 51
-195 60 -250 7 -40 19 -55 42 -55 26 0 28 5 25 60 -4 80 -101 443 -148 550
-69 159 -128 254 -201 324 -104 99 -153 130 -437 276 -303 156 -389 203 -413
227 -7 7 -17 13 -21 13 -4 0 -21 11 -37 25 -15 13 -40 29 -55 35 -14 6 -33 26
-42 45 -29 61 -57 263 -57 410 l0 100 62 24 c196 76 353 396 293 595 -8 28
-23 61 -32 75 -18 29 -82 91 -93 91 -4 0 4 42 17 92 12 51 23 102 23 114 0 12
9 33 21 48 18 22 20 37 17 105 l-3 79 31 -5 c41 -7 47 10 24 73 -17 50 -67
134 -79 134 -3 0 -12 9 -19 21 -12 19 -12 19 9 8 19 -10 25 -9 40 10 17 21 17
23 -4 63 -30 56 -121 148 -182 183 -44 25 -47 30 -31 39 51 31 96 68 96 80 0
37 -89 72 -159 62 -88 -13 -82 -16 -97 44 -33 129 -103 214 -150 182 -6 -4
-11 -31 -12 -61 0 -29 -3 -56 -6 -59 -3 -3 -16 6 -29 19 -35 37 -111 97 -141
110 -14 7 -26 16 -26 20 0 10 -128 49 -159 49 -20 0 -25 -9 -22 -37 1 -9 -11
-8 -46 3 -86 27 -196 54 -219 54 -12 0 -60 9 -106 20 -94 23 -105 24 -112 11z
m-403 -1421 c49 -23 77 -63 77 -112 0 -62 -21 -152 -50 -214 -25 -52 -36 -63
-78 -83 -42 -20 -62 -23 -133 -19 -101 4 -150 26 -186 79 -32 48 -56 166 -51
248 4 58 7 67 38 92 42 36 58 38 213 33 100 -3 136 -8 170 -24z m-473 0 c0
-13 -7 -20 -20 -20 -19 0 -27 20 -13 33 13 14 33 6 33 -13z m1301 11 c97 -11
118 -20 145 -65 40 -68 11 -275 -48 -335 -49 -50 -101 -64 -225 -59 -119 4
-157 18 -206 72 -54 61 -87 251 -54 315 32 64 187 93 388 72z m257 -28 c-5
-26 -38 -29 -38 -4 0 15 6 21 21 21 14 0 19 -5 17 -17z m232 -81 l65 -17 -3
-97 c-2 -89 0 -98 19 -108 27 -15 40 -3 74 67 52 106 110 153 188 153 48 0 84
-27 115 -85 21 -41 28 -163 12 -222 -42 -154 -164 -305 -270 -337 -59 -18
-106 -21 -114 -7 -3 4 -1 37 5 72 17 102 15 287 -3 305 -22 22 -45 7 -53 -34
-7 -41 -31 -121 -50 -167 -48 -117 -47 -115 -70 -109 -24 6 -32 -8 -49 -89
l-7 -28 -18 22 c-25 32 -48 19 -56 -33 -11 -63 -20 -76 -34 -49 -8 14 -20 21
-34 19 -19 -3 -32 -26 -53 -97 -4 -11 -8 -11 -22 3 -35 31 -59 21 -77 -34 -18
-55 -30 -68 -42 -46 -15 26 -63 24 -63 -2 0 -10 -6 -27 -14 -37 -13 -18 -15
-17 -20 20 -25 157 -54 213 -139 264 -69 41 -164 66 -278 75 -77 6 -87 5 -104
-13 -22 -25 -25 -89 -6 -125 11 -19 23 -26 45 -27 17 0 38 -2 46 -4 8 -1 60
-10 115 -20 105 -18 135 -31 159 -68 20 -32 29 -116 21 -198 -6 -55 -10 -67
-20 -59 -15 12 -45 -12 -45 -35 0 -24 -20 -28 -41 -9 -20 18 -21 18 -49 -16
l-29 -35 -10 26 c-12 32 -35 43 -52 23 -10 -12 -14 -12 -20 -2 -12 18 -11 96
1 103 16 10 11 51 -8 68 -14 12 -42 17 -118 19 l-99 3 -1 -60 c0 -58 -7 -78
-39 -120 -15 -18 -16 -18 -44 15 -24 29 -31 33 -44 22 -23 -20 -29 -1 -35 104
-8 148 20 224 81 224 50 0 107 22 129 49 22 28 21 89 -2 116 -16 20 -86 19
-141 0 -99 -35 -146 -90 -169 -197 l-13 -57 -19 37 c-35 68 -66 176 -88 305
-12 71 -20 131 -18 133 2 2 34 -1 72 -7 67 -11 142 -1 190 23 17 9 18 7 11
-32 -9 -51 12 -99 58 -134 45 -34 80 -41 101 -21 23 23 17 35 -30 61 -21 12
-45 34 -53 49 -12 26 -10 38 24 138 48 144 65 209 65 257 0 22 7 45 16 54 18
19 95 21 141 5 29 -10 31 -14 38 -77 18 -180 104 -305 235 -339 57 -15 226
-17 271 -2 67 21 114 52 145 93 33 43 70 148 79 228 6 48 14 59 74 95 43 25
84 27 171 5z m106 -782 c2 -122 25 -326 46 -410 6 -25 20 -62 30 -83 10 -21
16 -46 13 -56 -5 -17 -107 -119 -184 -185 -99 -84 -312 -188 -466 -227 -72
-18 -118 -22 -230 -23 -125 0 -145 3 -187 23 -68 33 -75 44 -52 86 16 31 17
40 6 95 -7 34 -15 67 -18 74 -4 10 12 13 64 13 181 2 417 103 595 255 73 62
183 176 218 225 25 36 99 184 99 198 0 3 7 22 15 41 10 25 20 35 32 32 15 -3
18 -14 19 -58z"/>
<path d="M1443 2965 c-25 -18 -31 -59 -9 -72 9 -6 15 -41 19 -116 6 -105 19
-149 39 -129 5 5 10 81 11 168 2 152 1 159 -18 162 -11 1 -30 -5 -42 -13z"/>
<path d="M1608 2954 c-20 -6 -34 -42 -21 -54 4 -5 28 -10 53 -12 34 -2 44 -7
41 -18 -3 -8 -5 -35 -5 -60 -1 -61 24 -100 64 -100 40 0 60 34 67 110 3 33 10
63 14 66 5 3 9 14 9 24 0 13 -11 22 -37 30 -45 12 -161 21 -185 14z"/>
<path d="M2372 2944 c-15 -10 -22 -24 -20 -37 3 -20 10 -22 69 -25 l66 -3 -1
-69 c0 -78 18 -110 64 -110 44 0 73 41 78 110 4 56 6 59 26 54 28 -7 50 18 41
45 -9 30 -80 47 -199 50 -80 1 -106 -2 -124 -15z"/>
<path d="M3395 2779 c-34 -30 -95 -141 -95 -172 0 -20 27 -36 51 -30 25 7 24
3 -9 -54 -47 -82 -55 -101 -49 -117 10 -27 32 -18 85 32 36 34 54 59 62 92 16
59 7 110 -24 135 l-25 20 23 26 c18 21 29 25 54 21 38 -5 51 16 34 54 -17 35
-62 32 -107 -7z"/>
<path d="M2002 2418 c-18 -18 -14 -46 8 -58 11 -6 46 -10 78 -8 54 3 57 5 60
30 3 29 8 27 -103 44 -17 2 -36 -1 -43 -8z"/>
<path d="M1834 2086 c-14 -37 1 -42 152 -54 163 -13 274 -15 298 -6 16 6 22
39 9 47 -5 3 -80 8 -168 11 -88 4 -188 9 -222 12 -52 5 -64 4 -69 -10z"/>
<path d="M2360 3255 c-41 -7 -83 -16 -93 -20 -36 -15 -50 -82 -22 -105 10 -9
23 -9 47 -1 75 24 386 33 478 14 86 -17 90 -17 90 12 0 18 -15 35 -57 67 l-56
43 -156 2 c-88 0 -189 -4 -231 -12z"/>
<path d="M1558 3240 c-36 -28 -39 -77 -5 -84 37 -7 249 -28 297 -30 41 -1 45
1 48 25 7 60 -61 89 -238 105 -68 6 -78 4 -102 -16z"/>
<path d="M4124 953 c-11 -10 -45 -40 -77 -66 -149 -126 -270 -365 -322 -639
-20 -105 -18 -132 11 -136 26 -4 39 26 54 127 39 268 171 516 344 646 72 54
86 85 38 85 -16 0 -37 -8 -48 -17z"/>
<path d="M1372 658 c-21 -26 -72 -380 -72 -505 0 -37 3 -43 26 -49 14 -4 29
-3 34 2 5 5 12 52 15 104 4 52 16 165 27 250 27 207 27 204 2 208 -11 2 -26
-3 -32 -10z"/>
</g>
</svg>
