<?xml version="1.0" standalone="no"?>
<!DOCTYPE svg PUBLIC "-//W3C//DTD SVG 20010904//EN"
 "http://www.w3.org/TR/2001/REC-SVG-20010904/DTD/svg10.dtd">
<svg version="1.0" xmlns="http://www.w3.org/2000/svg"
 width="500.000000pt" height="500.000000pt" viewBox="0 0 500.000000 500.000000"
 preserveAspectRatio="xMidYMid meet">

<g transform="translate(0.000000,500.000000) scale(0.100000,-0.100000)"
fill="#bca788" stroke="none">
<path d="M2091 4411 c-18 -12 -7 -58 22 -90 l22 -24 -35 7 c-113 23 -192 35
-205 30 -18 -7 -20 -35 -4 -51 9 -9 1 -14 -27 -22 -194 -53 -226 -61 -253 -67
-7 -1 -35 -8 -62 -14 -47 -11 -67 -11 -184 5 -40 6 -53 4 -63 -8 -21 -25 -4
-82 40 -132 22 -25 39 -47 37 -49 -2 -2 -24 -16 -49 -31 -79 -49 -140 -98
-166 -137 -23 -32 -25 -40 -13 -54 10 -13 27 -15 81 -12 37 2 68 1 68 -2 0 -3
-16 -25 -35 -49 -64 -81 -105 -198 -75 -216 12 -8 28 2 98 62 l49 43 -18 -68
c-34 -124 -20 -186 34 -153 18 12 19 11 14 -11 -16 -67 -18 -144 -4 -163 15
-19 16 -19 36 -1 29 26 46 90 66 247 10 74 19 139 21 146 3 12 91 70 137 91
27 11 26 10 -24 -84 -43 -80 -49 -97 -38 -110 32 -39 216 28 376 137 41 28 77
49 79 46 2 -2 -14 -39 -37 -81 -40 -76 -44 -106 -14 -106 9 0 49 11 88 24 70
24 153 69 270 148 31 21 57 34 57 28 0 -6 -13 -35 -30 -65 -68 -123 -15 -132
185 -33 102 51 140 73 192 115 24 19 47 32 53 28 5 -3 12 -28 16 -55 4 -31 16
-60 33 -81 24 -28 30 -30 49 -20 12 6 32 32 45 57 l24 46 22 -68 c29 -85 32
-92 74 -142 31 -36 35 -48 40 -119 3 -43 15 -125 27 -181 12 -57 19 -106 16
-110 -3 -3 -61 9 -129 27 -204 53 -228 58 -348 71 -140 16 -350 8 -434 -15
-60 -16 -115 -56 -115 -83 0 -9 -6 -12 -17 -7 -35 13 -139 17 -175 7 -35 -10
-39 -9 -50 15 -20 40 -57 61 -138 79 -95 20 -325 23 -443 5 -109 -16 -138 -36
-139 -97 -1 -56 8 -79 37 -94 27 -15 31 -24 45 -102 28 -153 44 -191 95 -228
34 -25 34 -26 35 -105 1 -44 3 -93 5 -110 2 -16 6 -70 10 -120 12 -171 50
-315 115 -447 46 -93 47 -94 136 -183 90 -91 207 -151 335 -173 39 -7 45 -12
58 -47 12 -29 12 -40 3 -43 -7 -2 -18 -10 -26 -17 -18 -19 -171 -100 -235
-125 -199 -78 -382 -174 -469 -247 -96 -81 -196 -238 -252 -395 -10 -29 -37
-100 -59 -158 -22 -58 -41 -110 -41 -116 0 -6 -14 -52 -30 -102 -16 -50 -30
-94 -30 -96 0 -3 9 -10 21 -16 33 -18 46 2 89 144 60 193 145 413 193 496 37
66 106 157 138 185 75 64 192 129 354 197 180 75 187 78 226 99 47 24 49 24
49 -8 0 -81 109 -161 264 -193 71 -15 245 -15 341 -1 169 25 365 106 533 219
80 53 231 196 263 249 12 18 24 33 27 33 4 -1 30 -14 57 -30 28 -16 194 -101
370 -189 350 -174 427 -220 512 -301 144 -140 265 -425 323 -765 18 -103 28
-125 57 -125 13 0 26 7 29 15 7 17 -49 290 -82 395 -52 170 -105 295 -169 395
-42 66 -182 210 -215 220 -11 3 -20 11 -20 16 0 5 -4 9 -10 9 -5 0 -33 14 -62
31 -29 18 -195 103 -370 190 -174 87 -322 165 -330 173 -23 22 -114 76 -129
76 -18 1 -48 59 -66 130 -8 31 -16 134 -20 235 l-6 181 50 12 c174 45 307 234
321 455 7 123 -16 204 -74 265 -24 25 -41 49 -37 55 3 6 12 51 19 100 8 49 19
96 26 104 7 9 11 46 10 100 -2 75 -1 84 12 74 24 -20 60 -10 64 17 5 37 -25
119 -69 184 -35 53 -37 59 -16 53 70 -22 77 21 18 111 -45 70 -76 99 -153 144
l-58 34 48 25 c58 32 64 54 20 81 -27 17 -45 20 -98 17 -36 -2 -75 -7 -87 -12
-22 -7 -23 -5 -23 44 0 28 -4 59 -8 69 -5 9 -20 39 -33 67 -16 33 -33 53 -50
59 -46 16 -59 3 -59 -56 0 -80 -10 -86 -55 -37 -77 85 -211 168 -304 188 -62
13 -86 2 -78 -36 4 -19 1 -23 -12 -18 -24 10 -188 51 -256 64 -229 43 -243 45
-264 32z m-456 -1327 c75 -7 109 -20 140 -54 28 -31 25 -172 -5 -255 -42 -113
-84 -140 -220 -139 -102 1 -166 21 -204 62 -44 50 -65 273 -30 332 10 15 27
34 40 40 28 15 127 29 174 24 19 -1 67 -6 105 -10z m-390 -30 c0 -10 -8 -20
-18 -22 -22 -4 -35 27 -16 39 20 12 34 5 34 -17z m1400 0 c62 -32 77 -70 72
-179 -4 -102 -27 -164 -73 -206 -57 -52 -168 -69 -283 -45 -81 17 -131 48
-158 99 -21 42 -42 139 -43 201 -1 132 46 156 300 153 125 -2 151 -5 185 -23z
m164 -13 c13 -8 8 -31 -7 -31 -17 1 -34 19 -28 29 9 13 16 14 35 2z m-769 -74
c32 -11 35 -17 47 -72 7 -33 12 -75 13 -93 0 -39 41 -126 79 -165 56 -61 140
-87 281 -87 192 0 275 54 325 212 26 81 33 110 34 138 1 8 19 26 41 40 22 14
40 28 40 32 0 17 80 5 185 -28 l40 -12 -3 -99 c-4 -108 7 -157 35 -151 17 3
55 66 48 78 -2 3 11 32 28 65 51 94 139 141 211 111 43 -18 83 -67 97 -119 15
-56 6 -199 -16 -262 -36 -103 -126 -213 -201 -246 -47 -21 -184 -38 -184 -23
0 5 4 35 10 67 5 32 12 84 15 115 3 31 8 74 11 94 7 46 -10 80 -38 76 -16 -2
-28 -21 -50 -78 -41 -106 -50 -122 -75 -147 -13 -12 -23 -29 -23 -38 0 -9 -7
-30 -16 -46 -12 -25 -18 -28 -30 -18 -20 17 -36 0 -58 -61 -17 -49 -19 -50
-37 -34 -26 23 -43 13 -68 -41 -21 -44 -23 -46 -40 -31 -28 25 -39 20 -66 -34
-14 -27 -28 -50 -31 -50 -3 0 -13 9 -22 20 -20 22 -40 12 -58 -29 -8 -20 -13
-7 -27 85 -22 134 -39 170 -98 200 -69 37 -137 45 -369 44 -118 0 -243 0 -277
1 -105 2 -150 -9 -187 -46 -35 -35 -42 -58 -53 -168 -5 -55 -8 -65 -16 -51 -6
11 -17 25 -24 32 -7 7 -13 22 -13 33 0 10 -9 28 -19 38 -11 11 -25 39 -31 61
-17 62 -40 209 -40 256 l0 40 108 -3 c74 -3 121 0 153 10 l45 14 -4 -56 c-5
-65 14 -97 72 -125 43 -20 102 -21 109 -1 6 15 -36 55 -57 55 -23 0 -56 41
-56 70 0 15 18 78 39 138 31 85 61 218 61 268 0 10 66 33 95 33 17 0 46 -5 65
-12z m153 -751 c111 -7 202 -17 208 -23 15 -15 14 -187 -1 -244 -13 -49 -50
-119 -74 -139 -13 -10 -19 -10 -31 0 -13 10 -21 6 -49 -25 -32 -34 -34 -35
-41 -16 -8 25 -32 27 -56 5 -16 -15 -19 -13 -34 16 -13 25 -14 38 -6 62 19 53
14 87 -11 92 -59 12 -226 14 -237 3 -6 -6 -11 -41 -11 -78 0 -72 -10 -90 -36
-64 -15 15 -18 15 -34 0 -17 -16 -20 -15 -34 13 -11 22 -21 29 -35 25 -10 -2
-22 1 -26 8 -18 28 -34 141 -35 236 0 131 2 133 150 134 58 1 116 5 130 9 14
5 34 6 45 4 11 -3 109 -11 218 -18z m978 -98 c1 -57 3 -112 4 -123 1 -11 5
-56 9 -99 11 -126 28 -189 69 -249 l19 -27 -40 -48 c-115 -137 -336 -281 -522
-342 -135 -45 -185 -53 -325 -54 -177 -1 -258 19 -307 78 -15 19 -15 22 2 44
19 23 20 72 5 141 l-6 28 118 6 c65 3 132 10 148 15 17 6 57 18 90 28 125 37
271 133 448 294 92 83 184 230 221 353 15 49 21 57 42 57 24 0 24 -1 25 -102z"/>
<path d="M1352 3028 c-14 -14 -17 -68 -3 -68 5 0 12 -42 16 -92 9 -126 17
-162 38 -166 16 -3 17 10 15 165 l-3 168 -25 3 c-14 2 -31 -3 -38 -10z"/>
<path d="M1587 3005 c-11 -8 -17 -23 -15 -37 2 -19 8 -23 34 -21 l30 3 -4 -59
c-6 -77 16 -121 59 -121 35 0 51 31 50 97 0 25 6 46 14 53 26 22 17 49 -25 75
-45 28 -113 33 -143 10z"/>
<path d="M2388 3006 c-10 -7 -18 -26 -18 -41 0 -26 2 -27 40 -23 l40 4 0 -83
c0 -78 1 -83 26 -100 23 -15 29 -15 52 -2 30 16 40 43 41 112 1 36 5 47 17 47
11 0 14 8 12 27 -5 44 -58 73 -132 73 -35 0 -69 -6 -78 -14z"/>
<path d="M3350 2801 c-48 -50 -100 -141 -100 -174 0 -35 28 -43 57 -16 l23 22
0 -30 c0 -19 -15 -54 -41 -92 -55 -83 -42 -117 26 -70 86 59 116 187 58 251
-13 15 -12 20 8 47 20 28 24 29 39 16 36 -33 68 1 44 46 -26 52 -65 52 -114 0z"/>
<path d="M1932 2478 c-7 -7 -8 -17 -1 -30 14 -25 153 -27 163 -2 12 31 -13 44
-83 44 -37 0 -72 -5 -79 -12z"/>
<path d="M1723 2203 c-16 -6 -16 -43 0 -63 39 -47 103 -73 229 -91 70 -10 102
-10 160 0 95 17 154 36 201 67 40 26 46 44 21 68 -19 20 -20 20 -52 -2 -73
-49 -128 -62 -257 -62 -126 0 -178 13 -237 60 -37 30 -43 32 -65 23z"/>
<path d="M1555 3318 c-60 -11 -97 -42 -93 -78 3 -25 4 -25 120 -31 64 -4 139
-12 167 -19 53 -13 86 -8 94 14 17 45 -35 89 -131 112 -65 15 -87 16 -157 2z"/>
<path d="M2330 3318 c-25 -5 -55 -12 -68 -14 -52 -10 -79 -69 -46 -101 12 -12
28 -14 77 -10 184 18 265 19 379 2 150 -22 169 -11 106 58 -52 55 -133 77
-282 76 -67 -1 -141 -6 -166 -11z"/>
<path d="M4105 1018 c-121 -86 -245 -260 -319 -448 -33 -85 -96 -332 -99 -390
-2 -42 0 -45 24 -48 26 -3 27 -1 49 105 76 370 196 603 381 739 40 29 47 39
38 50 -16 19 -39 17 -74 -8z"/>
<path d="M1252 718 c-10 -14 -10 -11 -45 -213 -28 -157 -41 -258 -42 -325 0
-43 1 -45 32 -48 31 -3 31 -3 38 55 8 80 36 286 46 353 5 30 12 85 15 123 6
63 5 67 -13 67 -11 0 -25 -6 -31 -12z"/>
</g>
</svg>
