<?xml version="1.0" standalone="no"?>
<!DOCTYPE svg PUBLIC "-//W3C//DTD SVG 20010904//EN"
 "http://www.w3.org/TR/2001/REC-SVG-20010904/DTD/svg10.dtd">
<svg version="1.0" xmlns="http://www.w3.org/2000/svg"
 width="500.000000pt" height="500.000000pt" viewBox="0 0 500.000000 500.000000"
 preserveAspectRatio="xMidYMid meet">

<g transform="translate(0.000000,500.000000) scale(0.100000,-0.100000)"
fill="#bca788" stroke="none">
<path d="M3190 4664 c-14 -2 -56 -9 -95 -15 -82 -12 -163 -27 -220 -40 -78
-17 -111 -21 -205 -26 -101 -5 -120 -13 -120 -47 1 -26 16 -47 53 -71 l29 -18
-59 -22 c-95 -34 -158 -87 -169 -142 -8 -41 19 -58 66 -42 40 14 49 5 23 -24
-26 -28 -43 -79 -43 -128 0 -33 4 -40 24 -45 18 -4 35 1 58 19 54 40 62 43 56
21 -66 -235 -76 -300 -55 -328 9 -12 20 -17 31 -13 19 8 18 5 41 122 25 135
63 246 93 274 l26 23 8 -21 c4 -11 16 -21 27 -21 17 0 86 29 143 61 25 13 25
12 20 -21 -10 -67 29 -69 135 -8 80 47 96 52 89 30 -3 -9 -12 -48 -20 -87 -36
-175 -31 -219 35 -320 21 -34 42 -75 45 -93 l7 -33 -39 5 c-22 3 -66 8 -99 10
-33 3 -82 8 -110 11 -27 3 -95 10 -150 15 -55 6 -147 15 -204 22 -103 11 -104
11 -123 -11 -19 -24 -25 -76 -9 -85 5 -3 10 -46 10 -94 1 -82 -1 -91 -30 -138
-82 -128 -129 -221 -129 -256 0 -40 47 -83 99 -92 39 -6 40 -7 51 -61 7 -34
18 -59 29 -65 13 -6 20 -26 24 -67 38 -346 42 -360 107 -416 53 -45 115 -62
225 -61 89 1 155 15 247 50 l47 18 38 -30 c46 -37 111 -120 119 -152 5 -19
-10 -40 -97 -125 -100 -99 -190 -211 -237 -292 -36 -63 -126 -246 -143 -291
-17 -42 -22 -44 -85 -36 -7 1 -39 20 -73 43 -34 22 -84 49 -111 59 -55 20
-106 56 -115 82 -9 25 12 57 41 64 15 4 49 -2 87 -15 112 -40 127 -43 143 -30
24 20 16 37 -50 103 -47 47 -78 69 -122 86 -58 22 -77 22 -171 4 -25 -5 -32
-2 -38 15 -9 29 9 56 52 76 77 37 154 27 287 -36 52 -25 76 -24 76 1 0 26 -69
71 -147 95 l-57 18 45 13 c57 18 160 17 227 0 29 -8 89 -31 133 -52 78 -37 82
-38 95 -19 31 42 11 61 -116 111 -93 37 -98 38 -230 38 -142 1 -173 -5 -267
-51 -48 -23 -85 -55 -160 -140 -30 -33 -18 -29 -353 -108 -197 -46 -395 -94
-620 -151 -253 -64 -295 -71 -314 -55 -25 21 -122 49 -213 62 -72 10 -113 10
-205 0 -123 -13 -163 -24 -218 -58 -62 -39 -61 -34 -60 -381 0 -190 5 -333 11
-357 33 -123 263 -199 480 -159 124 24 221 83 234 144 5 22 14 30 38 35 76 16
145 80 163 149 9 38 19 40 61 13 87 -55 207 -110 251 -115 38 -4 54 -13 92
-51 78 -81 170 -140 242 -155 17 -4 38 -23 58 -50 l30 -44 -63 -20 c-34 -11
-116 -37 -182 -57 -66 -20 -176 -54 -245 -75 -214 -66 -364 -112 -395 -120
-16 -4 -82 -24 -145 -45 -63 -20 -133 -42 -155 -49 -31 -10 -41 -18 -43 -38
-5 -41 17 -51 79 -34 82 22 290 86 419 129 45 15 285 90 475 149 55 17 145 45
200 63 55 18 105 30 112 28 7 -3 40 -41 73 -86 43 -57 57 -83 48 -88 -7 -4
-114 -41 -238 -83 -124 -41 -308 -104 -410 -140 -102 -35 -228 -78 -280 -96
-113 -38 -132 -53 -128 -94 l3 -31 939 -3 c745 -2 941 0 948 10 4 7 8 25 8 40
0 28 32 57 94 88 73 37 267 226 364 357 l50 66 69 -2 c84 -3 83 -4 153 142 42
86 60 113 89 131 108 69 289 313 279 379 -7 47 -35 30 -87 -55 -52 -84 -154
-207 -165 -198 -3 3 4 35 16 70 28 83 31 293 6 380 -61 213 -165 374 -300 465
-111 75 -283 108 -302 58 -10 -24 2 -30 74 -37 161 -17 319 -150 406 -342 65
-145 88 -303 63 -426 -15 -76 -50 -191 -60 -203 -5 -5 -9 -15 -9 -23 0 -8 -27
-71 -60 -140 l-60 -125 -78 6 c-183 15 -404 91 -559 193 -99 66 -233 191 -233
219 0 13 81 223 137 355 8 19 19 44 23 55 4 11 15 36 23 55 9 19 25 59 37 89
37 95 102 213 161 291 77 102 256 273 354 338 148 98 376 202 651 297 l151 52
104 -66 c167 -106 200 -131 285 -216 83 -81 160 -190 231 -325 40 -77 83 -190
83 -221 0 -12 -40 -39 -125 -86 -142 -77 -214 -128 -298 -211 -111 -108 -161
-237 -276 -707 -23 -93 -46 -186 -51 -205 -5 -19 -18 -73 -29 -120 -11 -47
-31 -132 -45 -190 -14 -58 -30 -127 -35 -155 -5 -27 -13 -58 -16 -67 -7 -17
19 -18 449 -18 l456 0 0 971 0 971 -29 61 c-69 146 -189 305 -306 406 -27 23
-102 77 -165 118 -63 42 -138 91 -166 109 -28 19 -57 34 -65 34 -8 0 -20 15
-27 33 -7 17 -17 39 -22 48 -18 34 -32 132 -22 153 5 11 15 41 21 66 15 57 12
51 115 260 94 193 130 292 152 414 22 124 16 214 -22 343 -5 18 -1 22 23 25
42 5 42 45 2 127 -34 69 -99 145 -162 192 l-37 27 37 19 c46 22 50 36 22 64
-19 19 -29 21 -89 17 l-68 -5 -22 49 c-25 55 -85 122 -119 133 -38 12 -54 -12
-48 -71 l5 -52 -55 34 c-75 45 -165 73 -338 104 -62 11 -380 22 -425 14z
m-375 -1058 c17 -3 91 -10 165 -16 74 -6 156 -13 183 -16 l47 -6 0 -56 c0 -30
-4 -83 -9 -116 -6 -34 -15 -97 -22 -141 -12 -77 -30 -128 -63 -170 -9 -11 -34
-44 -56 -72 -41 -54 -60 -65 -60 -38 0 34 -50 99 -92 121 -35 18 -123 18 -221
-1 -97 -18 -97 -18 -97 0 0 12 -15 15 -79 15 -100 0 -109 4 -103 38 5 27 86
167 102 177 5 3 11 -3 15 -14 8 -25 34 -35 52 -19 11 9 13 23 8 57 -10 63 -14
210 -8 245 l6 29 101 -6 c56 -4 115 -9 131 -11z m863 -62 c44 -34 64 -76 67
-148 6 -114 -25 -210 -91 -280 -55 -58 -97 -73 -183 -64 -14 2 -28 -4 -35 -15
-18 -30 24 -57 90 -57 55 0 95 17 162 67 31 23 52 24 52 2 0 -15 60 -99 94
-132 44 -43 96 -48 96 -10 0 10 13 4 41 -21 51 -47 86 -46 110 2 l17 32 10
-27 c6 -16 14 -50 17 -78 4 -27 16 -72 26 -100 23 -62 24 -74 2 -81 -19 -6
-84 -30 -180 -65 -32 -12 -77 -30 -100 -40 -24 -11 -45 -19 -48 -19 -14 0
-309 -152 -370 -191 -22 -14 -45 -28 -52 -32 -7 -4 -22 12 -39 40 -15 27 -54
76 -86 110 l-59 61 31 44 c85 117 102 196 105 488 2 222 5 259 27 413 8 53 14
73 20 62 14 -23 43 -18 56 10 29 64 152 80 220 29z m-773 -565 c16 -16 20 -32
19 -92 -1 -118 -53 -201 -144 -228 -50 -15 -86 -5 -127 36 -42 42 -43 65 -3
65 51 0 137 39 171 77 41 47 61 94 47 111 -16 19 -38 14 -47 -12 -17 -42 -89
-94 -149 -107 -61 -12 -74 -5 -70 41 3 21 9 26 43 31 55 7 108 34 147 75 27
29 38 34 63 29 16 -3 39 -15 50 -26z m-620 -1143 c18 -13 17 -15 -19 -24 -60
-17 -94 6 -38 26 36 14 36 14 57 -2z m-166 -45 l24 -19 -40 -7 c-27 -4 -48 -2
-62 7 -21 13 -20 13 11 25 43 15 39 15 67 -6z m-189 -69 c-28 -11 -35 -11 -58
4 l-26 17 34 12 c29 10 39 9 59 -4 l24 -15 -33 -14z m428 2 c29 -20 20 -34
-21 -34 -29 1 -67 19 -67 33 0 6 25 14 50 16 9 0 26 -6 38 -15z m-592 -19 c16
-13 17 -16 4 -25 -21 -14 -62 -12 -84 5 -15 11 -16 15 -5 19 8 2 21 7 29 9 26
9 36 7 56 -8z m432 -24 c29 -25 28 -28 -13 -35 -24 -5 -42 -2 -60 10 -34 22
-32 32 8 37 17 2 34 4 37 5 3 1 15 -7 28 -17z m-593 -31 c9 -14 -44 -24 -74
-14 -35 13 -33 27 4 35 30 5 59 -3 70 -21z m-738 -16 c86 -26 123 -65 88 -94
-12 -10 -23 -8 -57 8 -41 19 -69 25 -184 38 -74 9 -209 -14 -281 -49 -16 -7
-26 -7 -38 3 -54 45 40 100 195 116 36 3 66 7 67 8 7 6 166 -17 210 -30z
m1164 -2 l22 -19 -31 -6 c-47 -10 -108 17 -80 34 22 15 65 10 89 -9z m-601
-17 c13 -16 11 -18 -41 -29 -32 -7 -79 22 -58 35 22 14 86 10 99 -6z m980 -25
l25 -19 -30 -11 c-23 -9 -35 -9 -52 2 -35 21 -26 39 27 47 3 0 16 -8 30 -19z
m-495 -34 c80 -39 164 -113 217 -191 21 -31 42 -50 54 -50 30 0 21 46 -20 108
-39 59 -44 78 -22 96 23 19 49 -1 83 -66 47 -87 73 -174 76 -255 l4 -73 59
-48 c32 -27 103 -78 156 -114 77 -52 95 -69 89 -82 -37 -71 -44 -94 -34 -110
20 -31 38 -15 93 76 l55 93 55 -54 c114 -112 272 -199 480 -267 69 -23 126
-42 128 -44 4 -4 -18 -47 -27 -55 -3 -3 -31 -34 -61 -70 -214 -253 -394 -338
-604 -284 -154 40 -331 178 -546 428 -47 54 -90 103 -95 110 -6 6 -26 31 -45
56 -60 78 -73 90 -93 90 -32 0 -139 57 -192 102 -27 23 -81 79 -118 125 -55
66 -81 88 -133 114 -78 39 -116 75 -112 103 5 36 87 28 182 -17 90 -43 96 -44
96 -18 0 44 -75 90 -197 121 -49 12 -55 30 -16 51 45 24 134 15 212 -21 67
-31 91 -33 91 -6 0 35 -79 79 -176 99 l-69 14 40 17 c61 27 131 17 224 -30 79
-41 101 -44 101 -17 0 20 -16 34 -77 69 -29 16 -53 33 -53 38 0 21 124 -3 195
-38z m-662 20 c21 -16 16 -21 -31 -31 -24 -5 -40 -2 -60 11 -25 16 -25 18 -7
25 32 12 78 10 98 -5z m1007 -38 c0 -6 -6 -5 -15 2 -8 7 -15 14 -15 16 0 2 7
1 15 -2 8 -4 15 -11 15 -16z m-900 -63 c0 -7 -7 -18 -15 -25 -12 -10 -20 -9
-41 5 -27 17 -23 30 11 37 27 6 45 -1 45 -17z m-793 -45 c113 -14 255 1 352
36 75 28 71 28 71 9 0 -19 36 -41 81 -49 46 -8 82 -43 97 -94 19 -61 15 -154
-9 -216 -26 -72 -63 -99 -161 -120 -20 -5 -28 -13 -28 -27 0 -74 -141 -138
-305 -139 -80 0 -165 18 -221 47 -67 34 -72 53 -80 350 l-7 262 59 -24 c33
-13 100 -28 151 -35z m2216 -17 c3 -5 -13 -53 -35 -108 -22 -55 -49 -125 -61
-155 -15 -38 -21 -73 -19 -112 1 -31 -2 -59 -8 -63 -9 -6 -262 153 -274 173
-4 6 -9 42 -12 80 l-6 69 98 32 c55 17 131 40 169 52 39 11 79 24 90 29 25 11
53 12 58 3z"/>
<path d="M2679 3544 c-17 -21 -24 -121 -10 -156 12 -33 45 -37 61 -9 16 32 13
147 -6 165 -19 20 -28 20 -45 0z"/>
<path d="M3564 3476 c-38 -17 -68 -53 -90 -111 -18 -49 -14 -75 14 -75 12 0
26 16 42 49 25 55 63 81 78 54 12 -20 -7 -91 -41 -160 -32 -61 -33 -78 -10
-88 35 -13 98 100 112 196 9 68 -3 107 -42 134 -25 18 -24 18 -63 1z"/>
<path d="M986 1348 c-3 -7 -4 -71 -3 -143 2 -128 2 -130 25 -133 40 -6 89 57
97 123 10 74 0 120 -32 145 -28 22 -81 27 -87 8z"/>
<path d="M2110 4220 c-25 -4 -103 -10 -175 -14 -198 -9 -308 -16 -445 -26 -69
-6 -159 -12 -200 -15 -41 -3 -136 -10 -210 -15 -74 -5 -171 -12 -215 -15 -44
-3 -129 -10 -190 -15 -60 -5 -146 -12 -190 -15 -210 -15 -260 -29 -284 -81 -7
-17 -11 -261 -11 -790 l0 -766 22 -39 c12 -22 36 -45 57 -55 34 -16 43 -16
186 4 82 12 197 29 255 37 99 14 206 30 277 41 17 2 34 1 37 -4 2 -4 -1 -46
-7 -92 l-12 -84 -110 -19 c-64 -10 -117 -25 -127 -34 -21 -19 -24 -76 -5 -91
19 -16 292 -105 359 -117 36 -7 199 14 278 36 19 5 73 16 120 24 47 7 118 21
158 29 40 9 84 16 97 16 34 0 61 43 47 74 -9 20 -29 27 -141 51 -72 16 -129
30 -128 32 4 4 66 14 217 37 132 20 357 57 570 94 163 28 165 29 168 55 2 18
-2 29 -12 33 -14 6 -157 -13 -281 -36 -27 -5 -79 -14 -115 -20 -36 -6 -186
-31 -334 -56 -148 -24 -276 -50 -283 -56 -7 -6 -13 -17 -13 -24 0 -22 -27 -5
-38 24 -6 15 -14 59 -17 99 -9 95 -26 87 260 122 71 9 241 33 350 51 33 5 96
14 140 20 44 7 87 17 96 23 41 31 41 29 40 791 -1 402 -4 741 -7 752 -9 37
-84 51 -184 34z m112 -162 c2 -46 5 -356 6 -690 2 -574 1 -609 -16 -626 -13
-13 -48 -21 -127 -31 -61 -7 -137 -16 -170 -21 -33 -5 -132 -19 -220 -30 -88
-12 -270 -37 -405 -56 -135 -18 -281 -39 -325 -44 -44 -6 -107 -15 -140 -20
-57 -8 -107 -15 -292 -40 -43 -6 -99 -14 -124 -18 -26 -5 -56 -4 -68 2 l-21 9
0 734 c0 476 4 741 10 753 12 22 36 27 165 35 50 3 140 10 200 15 61 6 173 15
250 20 77 6 199 15 270 20 72 6 171 13 220 15 50 3 137 10 195 15 190 17 451
36 532 38 l56 2 4 -82z"/>
<path d="M1184 3839 c-159 -14 -189 -21 -192 -47 -5 -31 14 -52 41 -46 12 2
85 9 162 14 110 9 143 14 153 27 16 22 15 28 -4 47 -17 17 -23 17 -160 5z"/>
<path d="M850 3807 c-3 -3 -50 -8 -104 -11 -108 -8 -136 -17 -136 -45 0 -35
20 -39 134 -29 166 14 181 18 181 53 0 27 -4 30 -35 33 -20 2 -38 1 -40 -1z"/>
<path d="M483 3760 c-26 -11 -30 -42 -8 -60 22 -18 82 -4 90 21 13 40 -29 60
-82 39z"/>
<path d="M910 3663 c-69 -5 -88 -11 -95 -34 -13 -39 10 -49 98 -42 87 6 107
14 107 44 0 31 -22 37 -110 32z"/>
<path d="M485 3648 c-3 -7 -4 -222 -3 -478 3 -404 5 -465 18 -467 8 -2 20 0
27 5 14 9 24 912 11 937 -11 18 -47 20 -53 3z"/>
<path d="M680 3624 c-55 -50 -55 -84 0 -120 22 -14 46 -24 55 -20 26 10 29 36
7 59 l-22 21 21 22 c14 15 19 29 15 42 -11 35 -34 33 -76 -4z"/>
<path d="M1439 3570 c-63 -8 -79 -15 -79 -35 0 -30 41 -43 107 -35 73 9 83 14
83 45 0 22 -19 36 -43 34 -7 -1 -37 -5 -68 -9z"/>
<path d="M1040 3536 c-113 -12 -211 -25 -217 -29 -17 -11 -16 -44 1 -54 20
-11 427 17 478 33 22 7 30 31 18 55 -13 23 -10 23 -280 -5z"/>
<path d="M1805 3457 c-10 -8 -16 -23 -13 -38 2 -19 9 -24 33 -24 25 0 31 4 33
27 4 34 -26 54 -53 35z"/>
<path d="M1698 3453 c-29 -4 -47 -40 -33 -64 16 -25 104 2 105 33 0 9 -30 38
-38 37 -4 -1 -19 -4 -34 -6z"/>
<path d="M1395 3425 c-71 -8 -185 -19 -253 -26 -100 -10 -125 -15 -132 -30
-11 -20 -4 -45 13 -52 12 -4 101 4 253 23 44 5 102 10 130 11 27 0 85 6 129
12 63 10 80 16 83 30 6 29 -17 47 -57 46 -20 -1 -94 -7 -166 -14z"/>
<path d="M865 3371 c-34 -5 -40 -10 -43 -33 -4 -34 25 -44 89 -31 40 8 44 11
44 38 0 34 -16 38 -90 26z"/>
<path d="M923 3238 c-28 -39 -75 -176 -68 -199 4 -12 16 -19 30 -19 20 0 28
13 60 92 30 75 35 96 26 115 -12 25 -33 30 -48 11z"/>
<path d="M724 3176 c-58 -57 -58 -72 3 -114 39 -28 59 -28 74 -1 9 18 7 25
-10 42 l-21 21 26 27 c19 19 24 33 19 48 -10 33 -44 25 -91 -23z"/>
<path d="M1029 3204 c-11 -13 -11 -21 2 -43 14 -24 14 -30 3 -46 -19 -26 -17
-52 4 -64 15 -8 27 -3 58 22 69 56 71 75 12 117 -47 34 -60 37 -79 14z"/>
<path d="M1251 3161 c-42 -8 -62 -34 -41 -55 12 -11 32 -13 102 -6 100 9 108
13 108 46 0 23 -2 24 -67 23 -38 -1 -83 -4 -102 -8z"/>
<path d="M1165 2959 c-38 -4 -120 -12 -181 -18 -61 -5 -123 -13 -137 -16 -31
-8 -45 -41 -25 -61 14 -15 43 -13 298 17 157 19 174 23 178 42 2 10 -2 24 -8
32 -13 16 -19 16 -125 4z"/>
<path d="M684 2902 c-15 -9 -64 -146 -64 -177 0 -19 16 -35 35 -35 12 0 75
162 75 191 0 9 -7 20 -16 23 -19 7 -16 7 -30 -2z"/>
<path d="M759 2814 c-11 -13 -11 -20 2 -42 17 -31 43 -39 64 -22 21 17 19 36
-7 60 -26 24 -41 25 -59 4z"/>
<path d="M2648 3849 c-11 -6 -18 -22 -18 -39 0 -27 3 -30 33 -30 33 0 97 -20
155 -47 26 -12 35 -13 47 -3 8 7 15 18 15 25 0 22 -52 77 -87 91 -38 16 -120
18 -145 3z"/>
<path d="M560 2253 c0 -10 9 -33 20 -51 24 -40 25 -107 2 -143 -85 -134 -97
-172 -68 -227 21 -40 63 -75 80 -69 21 8 20 36 -1 59 -9 10 -16 36 -17 61 -1
34 7 55 36 98 49 71 62 124 47 184 -18 70 -99 142 -99 88z"/>
<path d="M340 2129 c-25 -5 -74 -14 -110 -19 -36 -6 -75 -13 -87 -16 -27 -5
-40 -41 -21 -60 12 -12 37 -10 177 15 90 17 168 34 173 39 6 6 8 18 6 28 -4
22 -65 28 -138 13z"/>
<path d="M744 1998 c-58 -66 -71 -136 -34 -195 35 -58 71 -37 50 27 -15 46 -8
79 26 119 14 17 24 39 22 48 -5 27 -41 27 -64 1z"/>
</g>
</svg>
